<svg xmlns="http://www.w3.org/2000/svg" viewBox="0 0 187.6 128"><path d="M82.6,1a11,11,0,0,0-12,1.9h0L39.2,31.1H17A17.1,17.1,0,0,0,0,48.3V79.7A17.1,17.1,0,0,0,17,96.9H39.2l31.4,28.2a11,11,0,0,0,12,1.9,11.4,11.4,0,0,0,6.6-10.3V11.3A11.4,11.4,0,0,0,82.6,1ZM75.8,111.7,46.2,85.1a6.6,6.6,0,0,0-4.4-1.7H17a3.7,3.7,0,0,1-3.6-3.7V48.3A3.7,3.7,0,0,1,17,44.6H41.8a6.6,6.6,0,0,0,4.4-1.7L75.8,16.3Zm70.9-35.9H135V87.6H123.3V99.4H135v11.8h11.7V99.4h11.6V87.6H146.7Zm29.2-53,.2-11.8-11.7-.2V22.6l-11.7-.2-.2,11.8,11.7.2-.2,11.8,11.6.2.2-11.8,11.7.2.2-11.8ZM129.2,40.4H117.5V52.2h11.7ZM170,81.7h11.7V69.9H170Z"/></svg>