<svg xmlns="http://www.w3.org/2000/svg" viewBox="0 0 220 160"><g fill="none" stroke="#cfe4ef" stroke-width="6" stroke-linejoin="round" stroke-linecap="round"><path d="M110 30 C85 12 45 10 20 18 V120 C45 112 85 114 110 132 C135 114 175 112 200 120 V18 C175 10 135 12 110 30 Z" fill="#e3f0f7"/><path d="M110 30 V132"/><path d="M38 42 C58 37 84 39 98 48 M38 64 C58 59 84 61 98 70 M38 86 C58 81 84 83 98 92 M122 48 C136 39 162 37 182 42 M122 70 C136 61 162 59 182 64 M122 92 C136 83 162 81 182 86"/></g></svg>
