<svg xmlns="http://www.w3.org/2000/svg" viewBox="0 0 138.6 128">
  <path d="M69.3,10.5,85,41.2l2.4,4.7,5.2.8L127,51.5,102.4,74.7l-4,3.8.9,5.5,5.9,33.2L73.9,101.3l-4.6-2.4-4.7,2.4L33.4,117.2,39.3,84l1-5.5-4.1-3.8L11.6,51.5l34.3-4.8,5.3-.8,2.4-4.7L69.3,10.5M69.3,0c-3.5,0-7,1.6-8.6,4.7L44.5,36.5,8.2,41.6A9.5,9.5,0,0,0,.5,47.9a8.8,8.8,0,0,0,2.4,9.4L29.2,82.2l-6.2,35a9.1,9.1,0,0,0,3.8,9,9.6,9.6,0,0,0,5.6,1.8,9.9,9.9,0,0,0,4.4-1.1l32.5-16.5,32.5,16.5a9.9,9.9,0,0,0,4.4,1.1,9.4,9.4,0,0,0,5.6-1.8,8.9,8.9,0,0,0,3.8-9l-6.2-35,26.4-24.9a9,9,0,0,0,2.4-9.4,9.6,9.6,0,0,0-7.7-6.3L94.1,36.5,77.8,4.7C76.2,1.6,72.7,0,69.3,0Z"/>
</svg>
