<svg xmlns="http://www.w3.org/2000/svg" viewBox="0 0 170.7 128"><path d="M160,10.7v90.6H101.3c-3.8,0-7.5,6.4-10.6,8.2V32a10.7,10.7,0,0,1,10.6-10.7h5.4V10.7h-5.4a21.5,21.5,0,0,0-16,7.2,21.3,21.3,0,0,0-16-7.2H0V117.3H69.3A10.7,10.7,0,0,1,80,128H90.7a10.7,10.7,0,0,1,10.6-10.7h69.4V10.7ZM80,109.5c-3.1-1.8-6.8-8.2-10.7-8.2H10.7v-80H69.3A10.7,10.7,0,0,1,80,32ZM128,32h10.7V21.3h10.6V10.7H138.7V0H128V10.7H117.3V21.3H128ZM53.3,37.3H42.7V48H32V58.7H42.7V69.3H53.3V58.7H64V48H53.3Zm80,53.4H144V80H133.3ZM122.7,48H112V58.7h10.7ZM21.3,90.7H32V80H21.3Z"/></svg>