<svg width="34" height="34" viewBox="0 0 34 34" fill="none" xmlns="http://www.w3.org/2000/svg">
<path d="M17 1.5C25.5599 1.5 32.4999 8.43968 32.5 17C32.5 25.5598 25.56 32.5 17 32.5C8.44004 32.5 1.5 25.5598 1.5 17C1.50012 8.43968 8.44009 1.5 17 1.5Z" fill="#7CB727" stroke="white" stroke-width="3"/>
<path d="M10 12.2998C11.12 12.0627 12.452 11.8848 13.9072 12.0918C15.5172 12.3207 16.5624 13.0214 16.5625 13.7979V23.001C16.019 23.001 15.5909 22.0357 14.9316 21.9189C12.8041 21.5433 12.1586 21.4464 10 21.9189V12.2998ZM21.0928 12.0918C22.5482 11.8848 23.88 12.0627 25 12.2998V21.9189C22.8412 21.4464 22.196 21.5433 20.0684 21.9189C19.409 22.0355 18.9811 23.001 18.4375 23.001V13.7979C18.4376 13.0214 19.4826 12.3207 21.0928 12.0918Z" fill="white"/>
</svg>
