<svg xmlns="http://www.w3.org/2000/svg" viewBox="0 0 192.6 128"><path d="M179.7,102.4V51.2a12.8,12.8,0,0,0-12.8-12.8H147.7c-22.8,0-31.5,17.9-32.1,30.7V99.2c0,16.4,13.8,28.8,32.1,28.8a36.5,36.5,0,0,0,17.8-4.3,25.8,25.8,0,0,0,14.2,4.3,12.8,12.8,0,1,0,0-25.6Zm-25.6-2.1c-.7,1.3-3,2.1-6.4,2.1s-6.5-1.1-6.5-3.2V70.4c0-6.4,4.9-6.4,6.5-6.4h6.4ZM63.4,8.3a12.9,12.9,0,0,0-24.1,0L.8,110.7a12.8,12.8,0,0,0,7.5,16.5,13,13,0,0,0,16.6-7.5l6.5-17.3h40l6.5,17.3a12.8,12.8,0,0,0,12,8.3,14.2,14.2,0,0,0,4.5-.8,12.8,12.8,0,0,0,7.5-16.5ZM41,76.8,51.4,49.3,61.7,76.8Z"/></svg>