<svg width="91.80000000000001" height="128" xmlns="http://www.w3.org/2000/svg">

 <g>
  <title>Layer 1</title>
  <path id="svg_1" d="m77.9,0l-64,0a13.9,13.9 0 0 0 -13.9,13.9l0,100.2a13.9,13.9 0 0 0 13.9,13.9l64,0a13.9,13.9 0 0 0 13.9,-13.9l0,-100.2a13.9,13.9 0 0 0 -13.9,-13.9zm8.4,111.3a11.1,11.1 0 0 1 -11.2,11.1l-58.4,0a11,11 0 0 1 -11.1,-11.1l0,-94.6a11,11 0 0 1 11.1,-11.1l58.4,0a11.1,11.1 0 0 1 11.2,11.1l0,94.6zm-25.4,-64a6,6 0 0 0 -5.9,6a5.9,5.9 0 0 0 5.9,5.9a5.8,5.8 0 0 0 5.9,-5.9a5.9,5.9 0 0 0 -5.9,-6zm-24.1,6a5.9,5.9 0 0 0 -5.9,-6a6,6 0 0 0 -5.9,6a5.9,5.9 0 0 0 5.9,5.9a5.8,5.8 0 0 0 5.9,-5.9zm17.4,22.2a16.2,16.2 0 0 1 -15.1,0.7l-1.5,-0.8a2.9,2.9 0 0 0 -3.9,1.3a2.7,2.7 0 0 0 1.2,3.8l1.6,0.8a21.6,21.6 0 0 0 20.6,-1a2.8,2.8 0 0 0 0.9,-3.9a2.8,2.8 0 0 0 -3.8,-0.9z"/>
  <rect id="svg_14" height="135.92921" width="12.74336" y="0.77875" x="0.0593" fill="#ffffff"/>
  <rect id="svg_15" height="16.46018" width="114.1593" y="118.47788" x="5.54602" fill="#ffffff"/>
  <rect id="svg_16" height="134.1593" width="25.13275" y="-7.18585" x="78.46638" fill="#ffffff"/>
  <rect id="svg_17" height="16.81416" width="85.30974" y="-4.88496" x="-2.0646" fill="#ffffff"/>
 </g>
</svg>